<?xml version="1.0" encoding="UTF-8"?>
<!-- Generator: Adobe Illustrator 22.0.0, SVG Export Plug-In . SVG Version: 6.00 Build 0)  -->
<svg version="1.1" id="Livello_1" xmlns="http://www.w3.org/2000/svg" xmlns:xlink="http://www.w3.org/1999/xlink" x="0px" y="0px" viewBox="0 0 158 50" style="enable-background:new 0 0 158 50;" xml:space="preserve">
<style type="text/css">
	.st0{fill:#FF9C00;}
	.st1{fill:#1A2C4B;}
	.st2{fill:#002C4D;}
</style>
<g id="Group_1" transform="translate(3391 13814.741)">
	<path id="Fill_1" class="st0" d="M-3343-13801.8c0,0,17.9-12.7,43.9-12.7c25.5,0,20,12.7,20,12.7l-13.5,0c0,0,6.3-7.8-10.3-7.8   C-3325.7-13809.6-3343-13801.8-3343-13801.8L-3343-13801.8z"/>
	<g id="Group_5" transform="translate(-3186 -13655.741)">
		<path id="Fill_3" class="st1" d="M-93.1-121.9c0,0-17.9,12.7-43.9,12.7c-25.5,0-20-12.7-20-12.7l13.5,0c0,0-6.3,7.8,10.3,7.8    C-110.4-114.2-93.1-121.9-93.1-121.9L-93.1-121.9z"/>
	</g>
	<path id="Fill_6" class="st2" d="M-3380-13791c-0.6-0.2-1.1-0.4-1.7-0.5c-0.6-0.1-1.3-0.2-1.9-0.2c-0.6,0-1.3-0.1-1.9-0.1   c-0.6,0-1.2-0.1-1.7-0.1c-1.3-0.1-1.4-0.8-1.4-1.3c0-0.2,0.1-0.4,0.2-0.6c0.1-0.2,0.3-0.3,0.6-0.4c0.3-0.1,0.5-0.2,0.8-0.3   c0.3-0.1,0.6-0.1,0.9-0.1c0.3,0,0.6-0.1,0.9-0.1c0.3,0,0.5,0,0.7,0c0.8,0,1.6,0.1,2.4,0.3c0.7,0.2,1.4,0.4,2.1,0.8l0.1,0.1l1.9-1.3   l-0.3-0.2c-0.9-0.6-1.9-1.1-2.9-1.3c-1.1-0.3-2.2-0.4-3.3-0.4c-0.4,0-0.8,0-1.2,0c-0.5,0-0.9,0.1-1.4,0.2c-0.5,0.1-0.9,0.2-1.4,0.4   c-0.4,0.2-0.8,0.4-1.2,0.7c-0.4,0.3-0.6,0.6-0.9,1c-0.2,0.4-0.3,0.9-0.3,1.4c0,1.5,0.6,2.5,1.8,2.9c1.2,0.4,2.4,0.7,3.6,0.7   c0.7,0,1.3,0.1,1.9,0.1s1.2,0.1,1.7,0.2c1.3,0.1,1.4,0.8,1.4,1.3c0,0.2-0.1,0.4-0.2,0.6c-0.2,0.2-0.3,0.3-0.6,0.4   c-0.3,0.1-0.5,0.2-0.8,0.3c-0.3,0.1-0.6,0.1-0.9,0.2c-0.3,0-0.6,0.1-0.9,0.1c-0.3,0-0.5,0-0.7,0c-0.8,0-1.6-0.1-2.4-0.3   c-0.7-0.2-1.4-0.4-2.1-0.8l-0.1-0.1l-1.9,1.4l0.3,0.2c0.9,0.6,1.8,1,2.8,1.3c1.1,0.3,2.3,0.5,3.4,0.5c0.4,0,0.8,0,1.2,0   c0.5,0,0.9-0.1,1.4-0.2c0.5-0.1,0.9-0.2,1.3-0.4c0.4-0.2,0.8-0.4,1.2-0.7c0.4-0.3,0.6-0.6,0.9-1c0.2-0.4,0.4-0.9,0.3-1.4   C-3378.2-13789.6-3378.8-13790.6-3380-13791"/>
	<path id="Fill_8" class="st2" d="M-3360-13788v3.7h-1.3v-3.7l-4-5.8h1.6l3.1,4.4l3-4.4h1.7L-3360-13788z"/>
	<path id="Fill_10" class="st2" d="M-3334.9-13793.8h1.4v9.4h-1.4l-6.7-7.4v7.4h-1.3v-9.4h1.3l6.7,7.4V-13793.8z"/>
	<path id="Fill_12" class="st2" d="M-3315.4-13793.8c0.4,0,0.9,0.1,1.3,0.2c0.4,0.1,0.8,0.3,1.2,0.5c0.4,0.2,0.7,0.5,1,0.7   c0.3,0.3,0.6,0.6,0.8,0.9l-1.2,0.6c-0.2-0.2-0.4-0.5-0.6-0.7c-0.2-0.2-0.5-0.4-0.7-0.5c-0.3-0.1-0.6-0.3-0.9-0.3   c-0.3-0.1-0.6-0.1-1-0.1c-0.5,0-1,0.1-1.4,0.3c-0.4,0.2-0.8,0.4-1.2,0.7c-0.3,0.3-0.6,0.7-0.8,1.1c-0.4,0.8-0.4,1.8,0,2.6   c0.2,0.4,0.5,0.8,0.8,1.1c0.3,0.3,0.7,0.6,1.2,0.7c0.5,0.2,0.9,0.3,1.4,0.3c0.3,0,0.7,0,1-0.1c0.6-0.2,1.2-0.4,1.6-0.9   c0.2-0.2,0.4-0.4,0.6-0.7l1.2,0.6c-0.2,0.4-0.5,0.7-0.8,1c-0.3,0.3-0.7,0.5-1,0.7c-0.8,0.4-1.7,0.7-2.5,0.7c-1.3,0-2.6-0.5-3.6-1.4   c-1-0.8-1.5-2.1-1.5-3.3c0-1.3,0.5-2.5,1.5-3.3C-3318-13793.3-3316.7-13793.8-3315.4-13793.8"/>
	<path id="Fill_14" class="st2" d="M-3289.4-13786.6v-10.4h-2.2v12.6h12.6v-2.2H-3289.4z"/>
	<path id="Fill_16" class="st2" d="M-3264.7-13784.4h-1.5l4.6-9.4h1.5l4.6,9.4h-1.5l-1-2h-5.8L-3264.7-13784.4L-3264.7-13784.4z    M-3260.8-13792.3L-3260.8-13792.3l-2.2,4.5h4.5L-3260.8-13792.3z"/>
	<g id="Group_20" transform="translate(-2747 -13724.741)">
		<path id="Fill_18" class="st2" d="M-488.7-59.5h-6.7v-9.4h6.7c0.4,0,0.7,0.1,1,0.2c0.6,0.3,1.2,0.8,1.4,1.4c0.1,0.3,0.2,0.7,0.2,1    c0,0.4-0.1,0.8-0.2,1.1c-0.2,0.4-0.4,0.7-0.7,0.9c0.9,0.8,1.2,2,0.7,3.1c-0.1,0.3-0.3,0.6-0.6,0.9c-0.2,0.2-0.5,0.4-0.9,0.6    C-488-59.6-488.3-59.5-488.7-59.5z M-494.1-63.5v2.7h5.4c0.2,0,0.4,0,0.5-0.1c0.2-0.1,0.3-0.2,0.4-0.3c0.1-0.1,0.2-0.3,0.3-0.4    c0.1-0.2,0.1-0.3,0.1-0.5c0-0.2,0-0.4-0.1-0.5c-0.1-0.3-0.4-0.6-0.7-0.7c-0.2-0.1-0.3-0.1-0.5-0.1L-494.1-63.5z M-494.1-67.6v2.7    h5.4c0.2,0,0.4,0,0.5-0.1c0.3-0.1,0.6-0.4,0.7-0.7c0.1-0.2,0.1-0.3,0.1-0.5c0-0.2,0-0.4-0.1-0.5c-0.1-0.3-0.4-0.6-0.7-0.7    c-0.2-0.1-0.3-0.1-0.5-0.1L-494.1-67.6z"/>
	</g>
</g>
</svg>